<?xml version="1.0" encoding="UTF-8"?>
<svg id="Layer_1" data-name="Layer 1" xmlns="http://www.w3.org/2000/svg" xmlns:xlink="http://www.w3.org/1999/xlink" viewBox="0 0 419.32 442.99">
  <defs>
    <style>
      .cls-1 {
        stroke-dasharray: 0 0 1 3;
      }

      .cls-1, .cls-2, .cls-3, .cls-4, .cls-5, .cls-6, .cls-7, .cls-8, .cls-9, .cls-10, .cls-11, .cls-12, .cls-13, .cls-14 {
        stroke-linecap: round;
        stroke-linejoin: round;
      }

      .cls-1, .cls-2, .cls-4, .cls-5, .cls-6, .cls-7, .cls-8, .cls-9, .cls-10, .cls-11, .cls-12, .cls-13, .cls-14 {
        stroke: #263238;
      }

      .cls-1, .cls-3, .cls-5, .cls-8, .cls-9, .cls-15, .cls-11, .cls-12 {
        fill: none;
      }

      .cls-16, .cls-7, .cls-17 {
        fill: #fff;
      }

      .cls-2 {
        fill: #757575;
      }

      .cls-18 {
        clip-path: url(#clippath-2);
      }

      .cls-3 {
        stroke: #fff;
      }

      .cls-19 {
        clip-path: url(#clippath-1);
      }

      .cls-20 {
        clip-path: url(#clippath-4);
      }

      .cls-4 {
        fill: #e4f0f9;
      }

      .cls-21 {
        opacity: .3;
      }

      .cls-21, .cls-22, .cls-17 {
        isolation: isolate;
      }

      .cls-5 {
        stroke-dasharray: 0 0 .98 2.93;
      }

      .cls-6 {
        fill: #999;
      }

      .cls-22 {
        opacity: .2;
      }

      .cls-8 {
        stroke-dasharray: 0 0 1 3;
      }

      .cls-9 {
        stroke-dasharray: 0 0 1 2.99;
      }

      .cls-10 {
        fill: #0072d5;
      }

      .cls-23 {
        clip-path: url(#clippath);
      }

      .cls-17 {
        opacity: .7;
      }

      .cls-11 {
        stroke-width: 2px;
      }

      .cls-24 {
        clip-path: url(#clippath-3);
      }

      .cls-13, .cls-25 {
        fill: #5f83ff;
      }

      .cls-14, .cls-26 {
        fill: #263238;
      }
    </style>
    <clipPath id="clippath">
      <path class="cls-15" d="m359.92,393.24c-6.77,11-41.12,16.21-59.87,15.72s-72.7-26-76.36-31.44c-3.39-5-11.72-21.57,1.12-31.58,1.09-.84,2.25-1.59,3.46-2.24,8.79-4.76,67.25,10.25,67.25,10.25,0,0,3.62-2.29,4.95-2.12,4.08.52,7,3.82,15.24,6.17,5.77,1.65,21.52-4.69,31.58.76,1.12.6,2.15,1.34,3.06,2.22,9.4,8.98,16.33,21.23,9.57,32.26Z"/>
    </clipPath>
    <clipPath id="clippath-1">
      <path class="cls-15" d="m290.67,402.8l17.52,13.75c8.44-.72,16.83-1.98,25.12-3.76h0c8.3-1.92,15.55-4.67,15.94-8.45.61-5.74-5.53-7.31-12.82-7.09-1.36,0-2.76.14-4.17.28-11.67,1.25-26.51-5.19-26.51-5.19l-15.08,10.46Z"/>
    </clipPath>
    <clipPath id="clippath-2">
      <path class="cls-15" d="m307,408.22c-3.16.51.31,7,4.59,5s-1.43-5.52-4.59-5Z"/>
    </clipPath>
    <clipPath id="clippath-3">
      <path class="cls-15" d="m333.31,412.78c8.3-1.92,15.55-4.67,15.94-8.45.61-5.74-5.53-7.31-12.82-7.09-.32.31-7.39,7.14-3.12,15.54Z"/>
    </clipPath>
    <clipPath id="clippath-4">
      <path class="cls-15" d="m279.9,403.33l-18.86,11.83c-8.32-1.6-16.54-3.73-24.59-6.37h0c-8.05-2.78-15-6.28-15-10.08,0-5.78,6.27-6.69,13.5-5.71,1.35.18,2.73.43,4.12.72,11.47,2.47,26.9-2.38,26.9-2.38l13.93,11.99Z"/>
    </clipPath>
  </defs>
  <g id="freepik--background-simple--inject-11">
    <path class="cls-17" d="m26.44,137.97s-27.88,72,11.3,144.5,119.88,110.8,184.47,143.55c64.59,32.75,131.66,16.8,163.53-36.84s-11.84-91.93-11.9-168.42,11.45-96.74-30-161.36S200.78-19.53,123.94,28.4,26.44,137.97,26.44,137.97Z"/>
    <path class="cls-25" d="m27.51,402.54h211.19c.85-1.36,1.71-2.72,2.59-4.05,22.72-34.58,59.1-59.24,98.83-70.81,17.8-5.18,37.08-8.26,51.38-20.06,14.72-12.13,21.48-31.49,24.4-50.34,3.55-22.82,1.63-48.41-13.86-65.54-18.19-20.11-48.67-22.37-72.37-35.55-40.79-22.7-56.6-74.39-93.71-102.71-23.45-17.89-55.09-24.82-83.45-20.9-40.19,5.57-78,32.5-89.35,72-3.26,11.5-4.43,23.5-3.44,35.42,1.81,23.55,6.88,47.4,2.1,70.53-5.27,25.49-21.85,47-31.76,71.09-12.34,30-14,63.6-8.77,95.58,1.4,8.6,3.48,17.07,6.22,25.34Z"/>
    <path class="cls-4" d="m27.51,402.54h211.19c.85-1.36,1.71-2.72,2.59-4.05,22.72-34.58,59.1-59.24,98.83-70.81,17.8-5.18,37.08-8.26,51.38-20.06,14.72-12.13,21.48-31.49,24.4-50.34,3.55-22.82,1.63-48.41-13.86-65.54-18.19-20.11-48.67-22.37-72.37-35.55-40.79-22.7-56.6-74.39-93.71-102.71-23.45-17.89-55.09-24.82-83.45-20.9-40.19,5.57-78,32.5-89.35,72-3.26,11.5-4.43,23.5-3.44,35.42,1.81,23.55,6.88,47.4,2.1,70.53-5.27,25.49-21.85,47-31.76,71.09-12.34,30-14,63.6-8.77,95.58,1.4,8.6,3.48,17.07,6.22,25.34Z"/>
  </g>
  <g id="freepik--Floor--inject-11">
    <line class="cls-12" x1=".5" y1="402.54" x2="418.82" y2="402.54"/>
  </g>
  <g id="freepik--Graphics--inject-11">
    <path class="cls-12" d="m237.51,84.27v-15.7l-11.76-1c-.69-2.46-1.66-4.82-2.9-7.05l7.59-9-11.1-11.1-9,7.59c-2.21-1.24-4.56-2.22-7-2.91l-1-11.76h-15.83l-1,11.76c-2.44.69-4.79,1.67-7,2.91l-9-7.59-11.1,11.1,7.59,9c-1.24,2.23-2.21,4.59-2.9,7.05l-11.76,1v15.7l11.76,1c.69,2.44,1.66,4.79,2.9,7l-7.59,9,11.1,11.1,9-7.59c2.21,1.24,4.56,2.22,7,2.91l1,11.76h15.7l1-11.76c2.46-.69,4.82-1.67,7.05-2.91l9,7.59,11.1-11.1-7.59-9c1.24-2.21,2.21-4.56,2.9-7l11.84-1Zm-43.1,10.39c-10.07,0-18.24-8.17-18.24-18.24s8.17-18.24,18.24-18.24c10.07,0,18.24,8.17,18.24,18.24,0,10.08-8.18,18.25-18.26,18.24,0,0-.01,0-.02,0h.04Z"/>
    <path class="cls-12" d="m406.2,237.72v-7.52l-5.64-.49c-.33-1.18-.8-2.31-1.39-3.38l3.64-4.33-5.3-5.32-4.32,3.64c-1.07-.6-2.2-1.06-3.38-1.39l-.49-5.64h-7.53l-.48,5.64c-1.18.33-2.31.79-3.38,1.39l-4.33-3.64-5.32,5.32,3.64,4.33c-.6,1.07-1.07,2.2-1.4,3.38l-5.64.49v7.52l5.64.49c.33,1.18.8,2.31,1.4,3.38l-3.67,4.29,5.32,5.32,4.33-3.64c1.07.6,2.2,1.06,3.38,1.39l.48,5.64h7.53l.49-5.64c1.18-.33,2.31-.79,3.38-1.39l4.32,3.64,5.33-5.32-3.64-4.33c.59-1.07,1.06-2.2,1.39-3.38l5.64-.45Zm-20.67,5c-4.83,0-8.75-3.91-8.76-8.74s3.91-8.75,8.74-8.76c4.83,0,8.75,3.91,8.76,8.74h0c0,4.84-3.93,8.76-8.76,8.75h.02Z"/>
    <path class="cls-12" d="m400.51,100.68c2.55-11.05-4.33-22.07-15.38-24.62-3.29-.76-6.72-.7-9.98.18-5.34-9.48-17.36-12.83-26.84-7.48-5.81,3.27-9.56,9.26-9.98,15.91-8.72-1.67-17.15,4.05-18.81,12.77-.08.41-.14.82-.19,1.23-4.94.52-8.53,4.95-8.01,9.89.45,4.3,3.9,7.67,8.21,8.03h75.28c4.97-.04,8.97-4.1,8.93-9.07-.02-2.65-1.2-5.15-3.23-6.84Z"/>
    <line class="cls-12" x1="359.14" y1="109.71" x2="359.14" y2="130.46"/>
    <line class="cls-12" x1="359.14" y1="97.27" x2="359.14" y2="105.56"/>
    <line class="cls-12" x1="359.14" y1="89.51" x2="359.14" y2="93.95"/>
    <polyline class="cls-12" points="355.22 128.04 359.14 132.89 363.06 128.04"/>
    <path class="cls-12" d="m171.15,344.03c2.55-11.05-4.35-22.08-15.41-24.63-3.29-.76-6.71-.69-9.96.19-5.33-9.48-17.34-12.83-26.82-7.5-5.82,3.28-9.58,9.28-9.99,15.94-.99-.19-1.99-.29-3-.29-8.19,0-15.08,6.14-16,14.28-4.94.52-8.53,4.94-8.01,9.89.45,4.3,3.89,7.67,8.2,8.03h75.35c4.97-.05,8.96-4.13,8.9-9.1-.03-2.64-1.21-5.13-3.23-6.81h-.03Z"/>
    <line class="cls-12" x1="129.75" y1="356.03" x2="129.75" y2="335.29"/>
    <line class="cls-12" x1="129.75" y1="368.48" x2="129.75" y2="360.18"/>
    <line class="cls-12" x1="129.75" y1="376.24" x2="129.75" y2="371.8"/>
    <polyline class="cls-12" points="133.67 337.71 129.75 332.86 125.83 337.71"/>
  </g>
  <g id="freepik--Window--inject-11">
    <path class="cls-10" d="m11.99,80.78h251.45c2.34,0,4.24,1.9,4.24,4.24v11.86H7.75v-11.86c0-2.34,1.9-4.24,4.24-4.24Z"/>
    <rect class="cls-7" x="19.13" y="99.85" width="262.71" height="184.87"/>
    <path class="cls-7" d="m285.86,88.82c0,2.21-1.79,4-4,4s-4-1.79-4-4,1.79-4,4-4,4,1.79,4,4Z"/>
    <path class="cls-7" d="m271.7,88.82c0,2.21-1.79,4-4,4s-4-1.79-4-4,1.79-4,4-4,4,1.79,4,4Z"/>
    <path class="cls-7" d="m257.51,88.82c0,2.21-1.79,4-4,4s-4-1.79-4-4,1.79-4,4-4,4,1.79,4,4Z"/>
    <line class="cls-11" x1="273.88" y1="107.78" x2="263.48" y2="107.78"/>
    <line class="cls-11" x1="273.88" y1="112" x2="263.48" y2="112"/>
    <line class="cls-11" x1="273.88" y1="116.22" x2="263.48" y2="116.22"/>
    <line class="cls-11" x1="37.32" y1="216.86" x2="116.05" y2="216.86"/>
    <line class="cls-11" x1="37.32" y1="223.07" x2="116.05" y2="223.07"/>
    <line class="cls-11" x1="37.32" y1="229.39" x2="99.4" y2="229.39"/>
    <line class="cls-12" x1="204.27" y1="101.93" x2="204.27" y2="102.43"/>
    <line class="cls-1" x1="204.27" y1="105.43" x2="204.27" y2="279.66"/>
    <line class="cls-12" x1="204.27" y1="281.16" x2="204.27" y2="281.66"/>
    <line class="cls-12" x1="22.29" y1="243.26" x2="22.79" y2="243.26"/>
    <line class="cls-9" x1="25.78" y1="243.26" x2="275.82" y2="243.26"/>
    <line class="cls-12" x1="277.32" y1="243.26" x2="277.82" y2="243.26"/>
    <rect class="cls-7" x="202.55" y="241.53" width="3.45" height="3.45"/>
    <line class="cls-12" x1="190.5" y1="210.12" x2="144.44" y2="210.12"/>
    <path class="cls-12" d="m191.39,231.42s0-21.41-23.92-21.41-23.96,21.41-23.96,21.41"/>
    <circle class="cls-13" cx="191.39" cy="231.42" r="2.02"/>
    <path class="cls-13" d="m141.51,231.42c0-1.1.9-2,2-2s2,.9,2,2-.9,2-2,2-2-.9-2-2Z"/>
    <rect class="cls-13" x="189.62" y="208.24" width="3.54" height="3.54"/>
    <rect class="cls-13" x="165.7" y="208.24" width="3.54" height="3.54"/>
    <rect class="cls-13" x="141.78" y="208.24" width="3.54" height="3.54"/>
    <path class="cls-10" d="m65.94,145.75v-7.08l-5.29-.45c-.31-1.11-.75-2.17-1.31-3.18l3.42-4.06-5-5-4.07,3.42c-1-.56-2.07-1-3.18-1.31l-.46-5.3h-7.06l-.46,5.3c-1.11.31-2.17.75-3.17,1.31l-4.07-3.42-5,5,3.42,4.06c-.56,1-1,2.07-1.31,3.18l-5.3.45v7.08l5.3.45c.31,1.11.75,2.17,1.31,3.18l-3.42,4.06,5,5,4.07-3.42c.99.56,2.05,1,3.15,1.31l.46,5.3h7.07l.46-5.3c1.11-.31,2.17-.75,3.17-1.31l4.07,3.42,5-5-3.42-4.06c.55-1.01.99-2.07,1.31-3.18l5.31-.45Zm-19.43,4.68c-4.54,0-8.22-3.68-8.22-8.22s3.68-8.22,8.22-8.22,8.22,3.68,8.22,8.22-3.68,8.22-8.22,8.22h0Z"/>
    <path class="cls-10" d="m89.98,161.61v-4.84l-3.63-.32c-.21-.76-.51-1.48-.89-2.17l2.34-2.78-3.43-3.42-2.78,2.34c-.69-.38-1.41-.68-2.17-.9l-.31-3.64h-4.84l-.32,3.63c-.76.22-1.48.52-2.17.9l-2.78-2.34-3.43,3.42,2.35,2.78c-.39.68-.69,1.41-.9,2.17l-3.63.32v4.84l3.63.31c.21.76.51,1.49.9,2.17l-2.35,2.8,3.43,3.42,2.78-2.34c.69.38,1.41.68,2.17.9l.32,3.62h4.84l.31-3.62c.76-.22,1.48-.52,2.17-.9l2.78,2.34,3.43-3.42-2.29-2.79c.38-.68.68-1.41.89-2.17l3.58-.31Zm-13.29,3.2c-3.11,0-5.63-2.51-5.64-5.62,0-3.11,2.51-5.63,5.62-5.64,3.11,0,5.63,2.51,5.64,5.62,0,0,0,.01,0,.02,0,3.1-2.52,5.61-5.62,5.62Z"/>
    <line class="cls-11" x1="214.15" y1="255.02" x2="252.88" y2="255.02"/>
    <line class="cls-11" x1="214.15" y1="261.23" x2="252.88" y2="261.23"/>
    <line class="cls-11" x1="214.15" y1="267.55" x2="236.23" y2="267.55"/>
    <path class="cls-10" d="m163.12,270.13h-20.39c-2.76,0-5-2.24-5-5h0c0-2.76,2.24-5,5-5h20.39c2.76,0,5,2.24,5,5h0c0,2.76-2.24,5-5,5Z"/>
    <path class="cls-10" d="m201.12,270.13h-20.39c-2.76,0-5-2.24-5-5h0c0-2.76,2.24-5,5-5h20.39c2.76,0,5,2.24,5,5h0c0,2.76-2.24,5-5,5Z"/>
    <rect class="cls-7" x="216.98" y="162.85" width="43.24" height="43.24"/>
    <line class="cls-12" x1="216.98" y1="162.85" x2="260.22" y2="206.09"/>
    <line class="cls-12" x1="260.22" y1="162.85" x2="216.98" y2="206.09"/>
    <polygon class="cls-7" points="233.94 113.76 233.94 123.85 229.49 128.3 219.4 128.3 219.4 113.76 233.94 113.76"/>
    <polygon class="cls-7" points="233.94 123.85 229.49 128.3 229.49 123.85 233.94 123.85"/>
    <polygon class="cls-7" points="79.31 191.79 79.31 201.88 74.86 206.34 64.77 206.34 64.77 191.79 79.31 191.79"/>
    <polygon class="cls-7" points="79.31 201.88 74.86 206.34 74.86 201.88 79.31 201.88"/>
    <polygon class="cls-7" points="24.37 253.96 24.37 264.05 19.92 268.5 9.82 268.5 9.82 253.96 24.37 253.96"/>
    <polygon class="cls-7" points="24.37 264.05 19.92 268.5 19.92 264.05 24.37 264.05"/>
  </g>
  <g id="freepik--Screens--inject-11">
    <rect class="cls-14" x="253.52" y="137.16" width="53.66" height="33.63"/>
    <rect class="cls-10" x="253.52" y="137.16" width="53.66" height="5.11"/>
    <line class="cls-3" x1="258.99" y1="146.58" x2="272.71" y2="146.58"/>
    <line class="cls-3" x1="265.85" y1="150.41" x2="289.59" y2="150.41"/>
    <line class="cls-3" x1="262.82" y1="153.98" x2="269.81" y2="153.98"/>
    <line class="cls-3" x1="265.85" y1="158.19" x2="281.84" y2="158.19"/>
    <line class="cls-3" x1="258.99" y1="162.01" x2="272.71" y2="162.01"/>
    <rect class="cls-14" x="51.71" y="272.47" width="53.66" height="33.63"/>
    <rect class="cls-13" x="51.71" y="272.47" width="53.66" height="5.11"/>
    <line class="cls-3" x1="57.19" y1="281.9" x2="70.9" y2="281.9"/>
    <line class="cls-3" x1="64.04" y1="285.72" x2="87.78" y2="285.72"/>
    <line class="cls-3" x1="61.01" y1="289.29" x2="68" y2="289.29"/>
    <line class="cls-3" x1="64.04" y1="293.5" x2="80.03" y2="293.5"/>
    <line class="cls-3" x1="57.19" y1="297.33" x2="70.9" y2="297.33"/>
  </g>
  <g id="freepik--speech-bubble--inject-11">
    <path class="cls-10" d="m125.51,28.88h-49.3c-1.2,0-2.17.98-2.18,2.18v23c0,1.2.98,2.17,2.18,2.17h22.1l2.52,9,2.53-9h22.15c1.2,0,2.17-.97,2.18-2.17v-23c0-1.2-.98-2.17-2.18-2.18Z"/>
    <line class="cls-11" x1="82.21" y1="35.46" x2="119.46" y2="35.46"/>
    <line class="cls-11" x1="82.21" y1="40.18" x2="119.46" y2="40.18"/>
    <line class="cls-11" x1="82.21" y1="44.9" x2="119.46" y2="44.9"/>
    <line class="cls-11" x1="82.21" y1="49.62" x2="110.28" y2="49.62"/>
  </g>
  <g id="freepik--Character--inject-11">
    <path class="cls-7" d="m206.38,192.46c-5.29.45-12-5.87-12-5.87-.46.47-1.21.48-1.68.03-.08-.08-.15-.17-.21-.27-.86-1.24-4.59-4.11-4.8-6.59s4.19-6.5,4.19-6.5c-3.39.92-3.75-1.07-3.75-1.07,0,0,5.71-4.71,7.71-4.84.78-.05,4.18,1.91,7.47,4.55,3.44,2.77,9.9,12.52,9.9,12.52,0,0,21.85,15.87,27.37,19.93,7.29,5.36,15.93,14.87,15.93,14.87,0,0,29,13.08,37,20.27l-10.82,25.62s-26.37-17.67-29-22.15-5.27-1.79-7.91-4.72-5.17-6.28-5.17-6.28c-4.7-2.27-8.96-5.34-12.59-9.08-6.16-6.33-11.59-16-15-21.82-1.77-3.19-4-6.09-6.64-8.6Z"/>
    <path class="cls-7" d="m207.99,188.72s-7.87-1.91-8.55-7.1c-.3-1.32-.88-2.55-1.69-3.63,0,0-7.34-.36-6.88-3.35l9.8-.87c3.57,1.37,6.57,3.9,8.53,7.18"/>
    <path class="cls-12" d="m194.37,186.59c.35-.65.47-1.4.33-2.12,0,0,2.16-.4,1.92-2.31,0,0,3.2-.39,1.13-4.17"/>
    <path class="cls-12" d="m196.62,182.16s-4.31-3.19-4.79-4.65"/>
    <path class="cls-12" d="m194.7,184.47s-4.59-2.8-4.67-4.43"/>
    <path class="cls-12" d="m195.75,170.09s-1.46,2.62-3.88,3.17"/>
    <path class="cls-12" d="m195.02,171.11c.77.4,1.49.88,2.16,1.43"/>
    <path class="cls-26" d="m362.63,259.68c-11.32-4.79-22.99-8.69-34.91-11.66-17.56-4.11-46-7.78-46-7.78,0,0,7.82,79.8,5.76,84.6s-14.42,20.92-14.42,20.92c0,0,66.89,26.08,78.55,28.3s5.58-38.25,5.58-38.25c0,0,12.32-51.44,5.44-76.13Z"/>
    <path class="cls-7" d="m338.62,251.11s1.59,3-2.59,4.57c-10.83,4-22.37.47-21.14-3.77.47-1.62,3.15,0,3-6-.07-.92-.32-1.83-.73-2.66-.76-1.62-1.69-3.17-2.75-4.61-1.16-1.61-2.39-3.15-3.71-4.63,0,0,17.19-11,29.94,0-.02-.05-4.76,2.35-2.02,17.1Z"/>
    <path class="cls-10" d="m359.92,393.24c-6.77,11-41.12,16.21-59.87,15.72s-72.7-26-76.36-31.44c-3.39-5-11.72-21.57,1.12-31.58,1.09-.84,2.25-1.59,3.46-2.24,8.79-4.76,67.25,10.25,67.25,10.25,0,0,3.62-2.29,4.95-2.12,4.08.52,7,3.82,15.24,6.17,5.77,1.65,21.52-4.69,31.58.76,1.12.6,2.15,1.34,3.06,2.22,9.4,8.98,16.33,21.23,9.57,32.26Z"/>
    <g class="cls-23">
      <path class="cls-21" d="m347.29,358.76c-10.31-.69-19.5,1.47-25.92,5.26-7.61,4.5-43.55,21.81-43.55,21.81.08-1.86,2.08-5.61,2.08-5.61-3.38-3-12.22-5.35-12.22-5.35-6.85-5.85-34-23.3-42.87-28.93,1.09-.84,2.25-1.59,3.46-2.24,8.79-4.76,67.25,10.25,67.25,10.25,0,0,3.62-2.29,4.95-2.12,4.08.52,7,3.82,15.24,6.17,5.8,1.65,21.52-4.69,31.58.76Z"/>
    </g>
    <path class="cls-12" d="m359.92,393.24c-6.77,11-41.12,16.21-59.87,15.72s-72.7-26-76.36-31.44c-3.39-5-11.72-21.57,1.12-31.58,1.09-.84,2.25-1.59,3.46-2.24,8.79-4.76,67.25,10.25,67.25,10.25,0,0,3.62-2.29,4.95-2.12,4.08.52,7,3.82,15.24,6.17,5.77,1.65,21.52-4.69,31.58.76,1.12.6,2.15,1.34,3.06,2.22,9.4,8.98,16.33,21.23,9.57,32.26Z"/>
    <path class="cls-7" d="m349.38,403.2l.86,3.77s-2.3,6.52-12.41,7.59-16.1,3.3-21,3.59c-2.56.2-5.14.16-7.69-.12l-1-1.48,41.24-13.35Z"/>
    <path class="cls-26" d="m290.67,402.8l17.52,13.75c8.44-.72,16.83-1.98,25.12-3.76h0c8.3-1.92,15.55-4.67,15.94-8.45.61-5.74-5.53-7.31-12.82-7.09-1.36,0-2.76.14-4.17.28-11.67,1.25-26.51-5.19-26.51-5.19l-15.08,10.46Z"/>
    <g class="cls-19">
      <path class="cls-21" d="m349.26,404.2c-3.4,1.27-6.66,2.87-9.74,4.8,0,0-16.27,8.37-41.28-.25l-7.57-5.95,15.08-10.47s14.83,6.45,26.51,5.19c1.41-.15,2.81-.25,4.17-.28,7.24-.22,13.33,1.32,12.83,6.96Z"/>
    </g>
    <path class="cls-12" d="m290.67,402.8l17.52,13.75c8.44-.72,16.83-1.98,25.12-3.76h0c8.3-1.92,15.55-4.67,15.94-8.45.61-5.74-5.53-7.31-12.82-7.09-1.36,0-2.76.14-4.17.28-11.67,1.25-26.51-5.19-26.51-5.19l-15.08,10.46Z"/>
    <path class="cls-16" d="m307,408.22c-3.16.51.31,7,4.59,5s-1.43-5.52-4.59-5Z"/>
    <g class="cls-18">
      <path class="cls-22" d="m312.93,412.19c-2.29-.28-4.56-.68-6.81-1.19-.6-1.27-.46-2.57.88-2.78,2.65-.44,7.11,2.01,5.93,3.97Z"/>
    </g>
    <path class="cls-12" d="m307,408.22c-3.16.51.31,7,4.59,5s-1.43-5.52-4.59-5Z"/>
    <path class="cls-16" d="m333.31,412.78c8.3-1.92,15.55-4.67,15.94-8.45.61-5.74-5.53-7.31-12.82-7.09-.32.31-7.39,7.14-3.12,15.54Z"/>
    <g class="cls-24">
      <path class="cls-21" d="m349.26,404.2c-3.4,1.27-6.66,2.87-9.74,4.8-2.19,1.01-4.49,1.78-6.85,2.29-2.8-7.7,3.46-13.76,3.76-14.05,7.24-.22,13.33,1.32,12.83,6.96Z"/>
    </g>
    <path class="cls-12" d="m333.31,412.78c8.3-1.92,15.55-4.67,15.94-8.45.61-5.74-5.53-7.31-12.82-7.09-.32.31-7.39,7.14-3.12,15.54Z"/>
    <path class="cls-7" d="m327.39,405.65h.05c.47.02.88-.34.9-.82,0,0,0,0,0-.01.28-2.46,1.33-4.76,3-6.59.34-.33.34-.88,0-1.22h0c-.34-.34-.88-.34-1.22,0-1.96,2.13-3.18,4.83-3.47,7.71-.04.46.28.87.74.93Z"/>
    <path class="cls-7" d="m323.92,405.88h.07c.47.01.87-.36.88-.84,0,0,0,0,0-.01.2-2.5,1.12-4.88,2.66-6.86.34-.34.33-.89-.02-1.23-.34-.34-.89-.33-1.23.02-.03.04-.07.07-.09.11-1.78,2.28-2.85,5.03-3.05,7.92-.02.46.32.85.78.89Z"/>
    <path class="cls-7" d="m319.77,405.42h0c.47.05.89-.3.94-.77,0,0,0,0,0,0,.27-3,2.85-6.93,2.88-7,.26-.4.16-.94-.24-1.21-.4-.26-.93-.16-1.2.24-.12.17-2.86,4.29-3.17,7.77-.06.48.27.91.75.98.01,0,.03,0,.04,0Z"/>
    <path class="cls-7" d="m315.85,405.01c.08,0,.15,0,.23,0,.47-.08.79-.52.71-.99,0,0,0,0,0-.01-.61-3.68,2.81-6.83,2.84-6.86.28-.39.18-.94-.21-1.21-.27-.19-.62-.21-.91-.06-.17.15-4.16,3.81-3.39,8.44.08.36.37.64.73.69Z"/>
    <path class="cls-7" d="m311.59,403.98c.09.01.19.01.28,0,.45-.11.73-.55.65-1-.75-3.28,2.48-7,2.52-7,.31-.36.28-.9-.08-1.22-.35-.32-.9-.29-1.21.06,0,0,0,0,0,0-.16.18-3.86,4.41-2.91,8.57.11.33.41.56.76.58Z"/>
    <path class="cls-7" d="m221.51,397.56l-1.25,3.66s1.6,6.73,11.54,8.85,15.66,5,20.46,5.78c2.53.47,5.09.69,7.66.68l1.15-1.37-39.56-17.6Z"/>
    <path class="cls-26" d="m279.9,403.33l-18.86,11.83c-8.32-1.6-16.54-3.73-24.59-6.37h0c-8.05-2.78-15-6.28-15-10.08,0-5.78,6.27-6.69,13.5-5.71,1.35.18,2.73.43,4.12.72,11.47,2.47,26.9-2.38,26.9-2.38l13.93,11.99Z"/>
    <g class="cls-20">
      <path class="cls-21" d="m279.9,403.33l-11.09,7c-8.99-2.79-16.88-8.35-22.54-15.87,6.68-.15,13.32-1.19,19.73-3.09l13.9,11.96Z"/>
    </g>
    <path class="cls-12" d="m279.9,403.33l-18.86,11.83c-8.32-1.6-16.54-3.73-24.59-6.37h0c-8.05-2.78-15-6.28-15-10.08,0-5.78,6.27-6.69,13.5-5.71,1.35.18,2.73.43,4.12.72,11.47,2.47,26.9-2.38,26.9-2.38l13.93,11.99Z"/>
    <path class="cls-7" d="m236.45,408.78c-8.05-2.78-15-6.28-15-10.08,0-5.78,6.27-6.69,13.5-5.71.32.34,6.63,7.89,1.5,15.79Z"/>
    <path class="cls-7" d="m243.09,402.31h-.05c-.48-.03-.84-.44-.82-.92-.02-2.47-.81-4.87-2.27-6.86-.33-.34-.33-.9.02-1.23.34-.33.9-.33,1.23.02.04.04.08.09.11.14,1.73,2.31,2.65,5.12,2.64,8,0,.47-.39.85-.86.85Z"/>
    <path class="cls-7" d="m246.51,402.88h-.08c-.48-.04-.83-.46-.79-.94.07-2.5-.59-4.96-1.91-7.09-.28-.4-.18-.94.22-1.22s.94-.18,1.22.22c1.54,2.45,2.31,5.31,2.2,8.2-.02.46-.4.83-.86.83Z"/>
    <path class="cls-7" d="m250.69,402.88h0c-.48-.01-.86-.4-.86-.88.06-3.05-2.1-7.18-2.13-7.22-.22-.43-.06-.95.37-1.18.43-.22.95-.05,1.17.37.1.18,2.39,4.56,2.33,8.06-.01.48-.4.86-.88.85Z"/>
    <path class="cls-7" d="m254.63,402.88h-.23c-.46-.13-.73-.61-.6-1.07,1-3.59-2.07-7.09-2.1-7.12-.35-.33-.36-.88-.03-1.23s.88-.36,1.23-.03c.03.03.06.06.09.1.15.17,3.74,4.23,2.48,8.75-.12.36-.46.6-.84.6Z"/>
    <path class="cls-7" d="m258.98,402.31c-.1,0-.19-.01-.28-.05-.45-.14-.69-.62-.55-1.07,0-.01,0-.02.01-.03,1.09-3.18-1.74-7.21-1.76-7.25-.32-.36-.29-.91.07-1.23.36-.32.91-.29,1.23.07.04.05.08.1.11.16.14.19,3.37,4.79,2,8.83-.13.35-.46.57-.83.57Z"/>
    <path class="cls-7" d="m263.09,407c3.09.85-1,6.9-5.09,4.5s2.01-5.34,5.09-4.5Z"/>
    <path class="cls-10" d="m227.43,374.88c4.63,6.49,18.36,13.66,32,19.57,2.44,4.04,5.32,7.8,8.58,11.21,8.42,8.66,11.85,3.81,11.85,3.81,0,0,5.32-.6,13.17-1.67.67,1.57,2.31,2.48,4,2.23,1-.16,3-1.62,5.21-3.55,19.83-3,46.74-8,54-13.82"/>
    <path class="cls-12" d="m348.51,362.52c-3.43-3.77-6.86-3.94-14.06-3.43,0,0-18.79,6-31.9,13.89s-32.23,16.26-32.23,16.26c0,0-5.83-1.69-9.89,0,0,0-2.85.22-.94,5.2"/>
    <path class="cls-12" d="m357.23,385.05s.1,5.81-8.14,9.83"/>
    <path class="cls-12" d="m266.35,360.81s13,9.4,15.61,15.6c2.55,1.08,5.02,2.35,7.38,3.81"/>
    <path class="cls-12" d="m282.9,368.62c.95,2.7,1.11,5.62.46,8.41"/>
    <path class="cls-12" d="m279.9,362.52c.71,1.03,1.33,2.12,1.86,3.25"/>
    <path class="cls-12" d="m298.42,361.66s4.35,5.82,5.43,10.54"/>
    <path class="cls-12" d="m322.65,396.82c1.62-.1,3.23-.3,4.82-.6"/>
    <path class="cls-12" d="m281.84,392.65c12.33,2.44,24.83,3.88,37.39,4.29"/>
    <path class="cls-7" d="m369.83,304.47s-2.35,41-5.12,43.35-7.14,3.08-15.41,3.77-44.85,2.93-44.85,2.93l-3.94-11.75s19.45-2,28.08-5.15c6.51-2.22,13.16-3.98,19.92-5.26,0,0-1.64-10.31-1.64-14.75v-20.88"/>
    <path class="cls-26" d="m362.63,259.68c8.91,5.49,11.54,18.18,8.46,45.27,0,0,2.63,3.2-1.26,4.8,0,0-14.57-5.45-21.34-1.69s-5-5.19-5-5.19c0,0-2.79-24.92,3.38-29.43"/>
    <path class="cls-3" d="m346.05,269.63s-8.57,8.91-1,31.43c-.48,1.84-.81,3.71-1,5.6,0,1.51,2.07,2.29,2.07,2.29"/>
    <path class="cls-3" d="m336.03,284.72s.62,11,7.44,15.77"/>
    <path class="cls-3" d="m338.23,259.18s-13.29,5.09-23.86-.55c-6.27-3.34-3.69-8.71-3.69-8.71"/>
    <path class="cls-2" d="m242.66,362.54h72.34c1.63,0,3.26-.21,4.84-.63l14.27-3.74c.41-.1.69-.47.69-.89h0c0-.51-.42-.93-.93-.93h-94.2c-.51,0-.92.42-.92.93v1.35c0,2.16,1.75,3.91,3.91,3.91h0Z"/>
    <path class="cls-6" d="m235.51,358.94h72.54c.95.04,1.75-.69,1.8-1.64.01-.23-.03-.46-.11-.68l-13.45-52.33c-.37-1.32-1.53-2.25-2.9-2.33h-72.56c-.95-.04-1.76.71-1.8,1.66,0,.23.03.46.11.67l13.46,52.33c.37,1.32,1.54,2.25,2.91,2.32Z"/>
    <line class="cls-12" x1="223.39" y1="303.82" x2="222.02" y2="303.82"/>
    <line class="cls-12" x1="234.02" y1="303.82" x2="226.94" y2="303.82"/>
    <path class="cls-12" d="m306.29,352.33l-11.88-46.18c-.37-1.31-1.53-2.25-2.89-2.33h-55.9"/>
    <line class="cls-12" x1="307.32" y1="356.35" x2="307.02" y2="355.2"/>
    <path class="cls-7" d="m257.32,331.77c.05.42.14.84.26,1.25.92,3.15,3.87,5.07,6.58,4.27s4.16-4,3.24-7.15-3.89-5.07-6.6-4.27c-.32.1-.62.23-.91.39.3,2.18-.7,4.34-2.57,5.51Z"/>
    <path class="cls-26" d="m289.34,233.7c-6.28-.68-9.7-6.65-13.48-7.58-2.11-.5-4.18-1.17-6.18-2,0,0-1.3-4.54-3.25-3s-4.51,35.5-2,34.43,2.52,2.94,2.52,2.94l23.31,20.54,19.54-34.6s-14.18-10.04-20.46-10.73Z"/>
    <polyline class="cls-12" points="99.39 112.77 99.39 112.27 99.89 112.27"/>
    <line class="cls-5" x1="102.83" y1="112.27" x2="187.43" y2="112.27"/>
    <polyline class="cls-12" points="188.89 112.27 189.39 112.27 189.39 112.77"/>
    <line class="cls-8" x1="189.4" y1="115.77" x2="189.4" y2="170.27"/>
    <polyline class="cls-12" points="189.39 171.77 189.39 172.27 188.89 172.27"/>
    <line class="cls-5" x1="185.96" y1="172.27" x2="101.36" y2="172.27"/>
    <polyline class="cls-12" points="99.89 172.27 99.39 172.27 99.39 171.77"/>
    <line class="cls-8" x1="99.4" y1="168.77" x2="99.4" y2="114.27"/>
    <circle class="cls-13" cx="144.4" cy="112.27" r="1.48"/>
    <circle class="cls-13" cx="99.4" cy="142.27" r="1.48"/>
    <circle class="cls-13" cx="144.4" cy="172.27" r="1.48"/>
    <circle class="cls-13" cx="189.4" cy="142.27" r="1.48"/>
    <rect class="cls-13" x="187.67" y="170.55" width="3.45" height="3.45"/>
    <rect class="cls-13" x="187.67" y="110.55" width="3.45" height="3.45"/>
    <rect class="cls-13" x="97.67" y="170.55" width="3.45" height="3.45"/>
    <rect class="cls-13" x="97.67" y="110.55" width="3.45" height="3.45"/>
    <rect class="cls-7" x="105.37" y="117.58" width="78.33" height="49.77"/>
    <polygon class="cls-10" points="183.7 152.65 174.99 161.36 151.43 137.8 141.52 147.71 125.72 131.91 105.37 152.25 105.37 167.35 183.7 167.35 183.7 152.65"/>
    <circle class="cls-10" cx="167.47" cy="131.71" r="5.53"/>
    <path class="cls-3" d="m293.51,242.88s-6,11.17-6.71,28.26"/>
    <path class="cls-3" d="m275.87,250.61s1.79,9.5,7,16.38"/>
    <path class="cls-3" d="m300.51,289.81s9,29.56,28.55,38.26"/>
    <path class="cls-26" d="m324.19,236.3s-.85,6.45-7.05,6.9c-.76-1.62-1.69-3.17-2.75-4.61,3.22-.95,6.49-1.72,9.8-2.29Z"/>
    <path class="cls-7" d="m337.4,236.75s10.37,1.27,14.71-12.65.93-24.41-16.23-29.46c-9.52-2.8-19-.55-22.47,6.66-2.94,6.17-1.55,11.3-2.22,13.37-.76,2.32-7.78,4.29-7.78,5.88,0,1.31,3.89,3.55,3.89,3.55l-1.14,3.46,1.07.57s-2,7.79-1.07,10.54c.66,2,18.23,2.84,19.6-2.14"/>
    <path class="cls-12" d="m313.51,206.35s3.43.86,4.37,2.66"/>
    <path class="cls-26" d="m314.11,214.26c-.15,1,.08,1.87.52,1.93s.9-.7,1.05-1.71-.09-1.87-.52-1.93-.9.7-1.05,1.71Z"/>
    <path class="cls-12" d="m307.23,228.13s5.58,2.14,7.66.85"/>
    <path class="cls-12" d="m309.19,213.46c-.41,2.24.09,4.2,1.12,4.39s2.21-1.46,2.62-3.69-.08-4.21-1.12-4.4-2.2,1.47-2.62,3.7Z"/>
    <path class="cls-26" d="m352.57,202.07c-.84-4.05-3.16-7.64-6.52-10.06-3.74-2.63-8.03-4.38-12.54-5.13,0,0,3.31,1.45,4.57,3.36,0,0-8.57-6.44-18.75-2.21s-8.91,15.22-8.91,15.22l1.48-2.88s-.17,3.43,1.63,4.69c.54-1.68,1.27-3.29,2.19-4.8,0,0,2.7,8.11,10.13,10.86-.5-1.28-.55-2.69-.12-4,0,0,4.12,8.91,2.92,13.26l1.31,2.28s4.73-4.79,8.58-.8c2.21,2.3-4.23,11-5.15,11l3.89,5.71s9.72,1.39,15.32-9.14,4.23-15,4.23-15c0,0,1.83,2.56,2,4,.02-.02,1.68-11.33-6.26-16.36Z"/>
    <path class="cls-7" d="m329.7,223.67s3-10.08,9.38-6.53,1.83,8.93-.46,11-4,5.83-5.49,5.83-1.82-1.83-1.82-1.83"/>
    <line class="cls-12" x1="312.93" y1="214.16" x2="330.73" y2="217.85"/>
  </g>
</svg>